<svg width="50" height="50" viewBox="0 0 50 50" fill="none" xmlns="http://www.w3.org/2000/svg">
<path d="M22.2001 17.6V14.9H6.00005C4.50005 14.9 3.30005 16.1 3.30005 17.6V23H22.8C22.4 21.4 22.2001 19.6 22.2001 17.6Z" stroke="#606060" stroke-width="3" stroke-miterlimit="10"/>
<path d="M46.5 27.4C44.7 30.3 41.8 32.7 37.8 35C37.2 35.3 36.5 35.5 35.8 35.5C35.1 35.5 34.4 35.3 33.8 35C29.8 32.7 27 30.3 25.1 27.4H3.30005V41C3.30005 42.5 4.50005 43.7 6.00005 43.7H43.9001C45.4001 43.7 46.6 42.5 46.6 41V27.4H46.5Z" stroke="#606060" stroke-width="3" stroke-miterlimit="10"/>
<path d="M44.3 11.3L36.1 7.80001C35.8 7.70001 35.5001 7.70001 35.2001 7.80001L27 11.3C26.6 11.5 26.3 11.9 26.3 12.4V17C26.3 23.4 28.7 27.2 35.1 30.9C35.3 31 35.5001 31 35.7001 31C35.9001 31 36.1 30.9 36.3 30.9C42.7 27.3 45 23.5 45 17V12.3C45 11.9 44.8 11.5 44.3 11.3Z" stroke="#606060" stroke-width="3" stroke-miterlimit="10"/>
<path d="M40.3001 16.5L35.5001 22.5C35.3001 22.8 34.9001 22.9 34.6001 22.9C34.2001 22.9 33.9001 22.7 33.6001 22.4L31.2001 18.8C30.8001 18.2 31.0001 17.5 31.5001 17.1C32.1001 16.7 32.8001 16.9 33.2001 17.4L34.7001 19.7L38.5001 14.9C38.9001 14.4 39.7001 14.3 40.2001 14.7C40.6001 15.2 40.7001 16 40.3001 16.5Z" stroke="#606060" stroke-width="1.5" stroke-miterlimit="10"/>
</svg>
