<svg width="50" height="50" viewBox="0 0 50 50" fill="none" xmlns="http://www.w3.org/2000/svg">
<path d="M25 8.8C21.8 8.8 18.8 10 16.5 12.3C16.2 12.6 15.6 13.3 15.3 13.8C15.1 14.1 15.6 14.2 15.8 14.5C16 14.7 16 14.8 16.2 14.5L17.4 13.2C19.4 11.1 22.1 10 25 10C30.9 10 35.5999 14.8 35.5999 20.6C35.5999 26.4 30.8 31.2 25 31.2C19.2 31.2 14.4 26.4 14.4 20.6C14.4 18.7 15.6 15.7 16.5 14.1C16.7 13.8 16.6 13.6 16.3 13.4C16 13.2 15.5 13.5 15.4 13.7C14.3 15.5 13.2 18.5 13.2 20.6C13.2 27.1 18.5 32.4 25 32.4C31.5 32.4 36.7999 27.1 36.7999 20.6C36.7999 14.1 31.5 8.8 25 8.8Z" fill="#606060" stroke="#606060" stroke-width="1.5" stroke-miterlimit="10"/>
<path d="M36.7 35.7L35.2 32.9C35.5 32.4 35.7 31.9 36 31.6C36.3 31.3 36.9 31 37.4 30.7C38.2 30.3 39.1 29.9 39.6 29C40.1 28.2 40 27.2 40 26.3C40 25.7 39.9 25.1 40.1 24.6C40.2 24.1 40.5 23.7 40.9 23.2C41.4 22.4 42 21.6 42 20.6C42 19.6 41.4 18.8 40.9 18C40.6 17.5 40.2 17 40.1 16.6C40 16.1 40 15.5 40 14.9C40.1 14 40.1 13 39.6 12.2C39.1 11.4 38.2 10.9 37.4 10.5C36.8 10.2 36.3 10 36 9.60001C35.7 9.30001 35.4 8.70001 35.1 8.20001C34.7 7.40001 34.3 6.50001 33.4 6.00001C32.6 5.50001 31.6 5.60001 30.7 5.60001C30.1 5.60001 29.5 5.70001 29 5.50001C28.5 5.40001 28 5.00001 27.5 4.70001C26.7 4.20001 25.9 3.60001 24.9 3.60001C23.9 3.60001 23.1 4.20001 22.3 4.70001C21.8 5.00001 21.3 5.40001 20.9 5.50001C20.4 5.60001 19.8 5.60001 19.2 5.60001C18.3 5.50001 17.3 5.50001 16.5 6.00001C15.7 6.50001 15.2 7.40001 14.8 8.20001C14.5 8.80001 14.3 9.30001 13.9 9.60001C13.6 9.90001 13 10.2 12.5 10.5C11.7 10.9 10.8 11.3 10.3 12.2C9.8 13 9.9 14 9.9 14.9C9.9 15.5 10 16.1 9.8 16.6C9.7 17.1 9.4 17.5 9 18C8.6 18.7 8 19.6 8 20.5C8 21.5 8.6 22.3 9.1 23.1C9.4 23.6 9.8 24.1 9.9 24.5C10 25 10 25.6 10 26.2C9.9 27.1 9.9 28.1 10.4 28.9C10.9 29.7 11.8 30.2 12.6 30.6C13.2 30.9 13.7 31.1 14 31.5C14.3 31.8 14.6 32.3 14.8 32.8L10.3 41.2C10.1 41.6 10.1 42 10.3 42.3C10.5 42.7 10.9 42.9 11.3 42.9L14.8 43L16.8 45.9C17 46.2 17.4 46.4 17.8 46.4C17.8 46.4 17.8 46.4 17.9 46.4C18.3 46.4 18.7 46.1 18.9 45.8L23.7 37C24.2 37.3 24.7 37.4 25.3 37.4C25.9 37.4 26.4 37.2 26.9 37L31.7 45.8C31.9 46.2 32.3 46.4 32.7 46.4C32.7 46.4 32.7 46.4 32.8 46.4C33.2 46.4 33.5 46.2 33.8 45.9L35.8 43L39.3 42.9C39.7 42.9 40.1 42.7 40.3 42.3C40.5 41.9 40.5 41.5 40.3 41.2L38.6 38.1L36.7 35.7ZM37 38.8L38.6 41.7L35.2 41.8C34.8 41.8 34.5 42 34.3 42.3L32.4 45.1L27.7 36.4C28.2 36.1 28.7 35.7 29.1 35.6C29.6 35.5 30.2 35.5 30.8 35.5C31.7 35.6 32.7 35.6 33.5 35.1C33.9 34.8 34.3 34.5 34.5 34.1L35.6 36.2L37 38.8ZM17.6 45.1L15.7 42.3C15.5 42 15.1 41.8 14.8 41.8L11.4 41.7L15.5 34.2C15.8 34.6 16.1 35 16.5 35.2C17.3 35.7 18.3 35.6 19.2 35.6C19.8 35.6 20.4 35.5 20.9 35.7C21.3 35.8 21.8 36.1 22.3 36.5L17.6 45.1ZM39.8 22.5C39.4 23.1 39 23.7 38.8 24.3C38.6 25 38.7 25.7 38.7 26.4C38.8 27.2 38.8 27.9 38.5 28.4C38.2 28.9 37.5 29.2 36.8 29.6C36.2 29.9 35.5 30.2 35 30.7C34.5 31.2 34.2 31.8 33.9 32.5C33.5 33.2 33.2 33.9 32.7 34.2C32.2 34.5 31.5 34.4 30.7 34.4C30 34.4 29.3 34.3 28.6 34.5C27.9 34.7 27.4 35.1 26.8 35.5C26.1 35.9 25.5 36.4 24.9 36.4C24.3 36.4 23.7 36 23 35.5C22.4 35.1 21.8 34.7 21.2 34.5C20.8 34.4 20.4 34.4 20.1 34.4C19.8 34.4 19.5 34.4 19.1 34.4C18.3 34.5 17.6 34.5 17.1 34.2C16.6 33.9 16.3 33.2 15.9 32.5C15.6 31.9 15.3 31.2 14.8 30.7C14.3 30.2 13.7 29.9 13 29.6C12.3 29.2 11.6 28.9 11.3 28.4C11 27.9 11.1 27.2 11.1 26.4C11.1 25.7 11.2 25 11 24.3C10.8 23.6 10.4 23.1 10 22.5C9.6 21.8 9.1 21.2 9.1 20.6C9.1 20 9.5 19.4 10 18.7C10.4 18.1 10.8 17.5 11 16.9C11.2 16.2 11.1 15.5 11.1 14.8C11 14 11 13.3 11.3 12.8C11.6 12.3 12.3 12 13 11.6C13.6 11.3 14.3 11 14.8 10.5C15.3 10 15.6 9.40001 15.9 8.70001C16.3 8.00001 16.6 7.30001 17.1 7.00001C17.6 6.70001 18.3 6.80001 19.1 6.80001C19.8 6.80001 20.5 6.90001 21.2 6.70001C21.9 6.50001 22.4 6.10001 23 5.70001C23.7 5.30001 24.3 4.80001 24.9 4.80001C25.5 4.80001 26.1 5.20001 26.8 5.70001C27.4 6.10001 28 6.50001 28.6 6.70001C29.3 6.90001 30 6.80001 30.7 6.80001C31.5 6.70001 32.2 6.70001 32.7 7.00001C33.2 7.30001 33.5 8.00001 33.9 8.70001C34.2 9.30001 34.5 10 35 10.5C35.5 11 36.1 11.3 36.8 11.6C37.5 12 38.2 12.3 38.5 12.8C38.8 13.3 38.7 14 38.7 14.8C38.7 15.5 38.6 16.2 38.8 16.9C39 17.6 39.4 18.1 39.8 18.7C40.2 19.4 40.7 20 40.7 20.6C40.6 21.2 40.2 21.8 39.8 22.5Z" fill="#606060" stroke="#606060" stroke-width="1.5" stroke-miterlimit="10"/>
<path d="M31.9999 20.1C32.3999 19.8 32.4999 19.3 32.2999 18.8C32.1999 18.3 31.7999 18 31.2999 17.9L27.7999 17.4C27.6999 17.4 27.6999 17.3 27.5999 17.3L25.9999 14.1C25.7999 13.7 25.2999 13.4 24.8999 13.4C24.3999 13.4 23.9999 13.7 23.7999 14.1L22.1999 17.3C22.1999 17.4 22.0999 17.4 21.9999 17.4L18.4999 17.9C17.9999 18 17.5999 18.3 17.4999 18.8C17.2999 19.3 17.4999 19.8 17.7999 20.1L20.2999 22.6C20.3999 22.7 20.3999 22.7 20.3999 22.8L19.7999 26.3C19.6999 26.8 19.8999 27.3 20.2999 27.5C20.4999 27.7 20.7999 27.7 21.0999 27.7C21.2999 27.7 21.4999 27.7 21.6999 27.6L24.7999 25.9C24.8999 25.9 24.9999 25.9 24.9999 25.9L28.0999 27.6C28.4999 27.8 28.9999 27.8 29.3999 27.5C29.7999 27.2 29.9999 26.7 29.8999 26.3L29.2999 22.8C29.2999 22.7 29.2999 22.6 29.3999 22.6L31.9999 20.1ZM28.3999 22.9L28.9999 26.4C28.9999 26.5 28.8999 26.6 28.8999 26.6C28.8999 26.6 28.7999 26.7 28.6999 26.6L25.4999 25C25.0999 24.8 24.6999 24.8 24.2999 25L21.1999 26.7C21.0999 26.8 20.9999 26.7 20.9999 26.7C20.9999 26.7 20.8999 26.6 20.8999 26.5L21.4999 23C21.5999 22.6 21.3999 22.2 21.0999 21.9L18.5999 19.4C18.4999 19.3 18.4999 19.2 18.4999 19.2C18.4999 19.2 18.5999 19.1 18.6999 19L22.1999 18.5C22.5999 18.4 22.9999 18.2 23.1999 17.8L24.7999 14.6C24.8999 14.5 24.9999 14.5 24.9999 14.5C24.9999 14.5 25.1999 14.5 25.1999 14.6L26.7999 17.8C26.9999 18.2 27.2999 18.4 27.7999 18.5L31.2999 19C31.3999 19 31.4999 19.1 31.4999 19.2C31.4999 19.2 31.4999 19.4 31.3999 19.4L28.8999 21.9C28.4999 22.1 28.3999 22.5 28.3999 22.9Z" fill="#606060" stroke="#606060" stroke-width="1.5" stroke-miterlimit="10"/>
</svg>
