<svg width="50" height="50" viewBox="0 0 50 50" fill="none" xmlns="http://www.w3.org/2000/svg">
<g clip-path="url(#clip0)">
<path d="M7.89998 34.6L24.5 46C24.6 46.1 24.8 46.1 25 46.1C25.1 46.1 25.3 46.1 25.4 46C25.4 46 25.4 46 42.1 34.5C42.3 34.4 42.4 34.1 42.4 33.8V16C42.4 15.8 42.4 15.6 42.1 15.4L25.4 3.79999C25.1 3.59999 24.8 3.59999 24.5 3.79999L7.89998 15.3C7.79998 15.4 7.59998 15.5 7.59998 16V33.9C7.59998 34.2 7.69998 34.4 7.89998 34.6ZM9.79998 16L16.8 11.2L31.5 22L25 26.4L9.79998 16ZM25.8 43.8V27.8L40.8 17.4V33.4L25.8 43.8ZM33.1 20.8L18.4 9.99999L25 5.49999L40.1 16L33.1 20.8ZM9.19998 33.5V17.5L24.2 27.9V43.9L9.19998 33.5Z" fill="#606060" stroke="#606060" stroke-miterlimit="10"/>
<path d="M35.8 33.2C35.4 33.2 35 33.1 34.5 32.9L34.4 32.8C34.4 32.8 33.9 31.5 34.5 30.5C35 29.8 35.9 29.4 37.3 29.4C37.4 29.4 37.5 29.5 37.5 29.6C37.5 29.7 37.7 32 36.6 32.9C36.4 33.1 36.1 33.2 35.8 33.2ZM34.8 32.5C35.5 32.8 36 32.8 36.4 32.5C37.1 32 37.2 30.6 37.1 29.9C36 29.9 35.3 30.2 34.9 30.7C34.5 31.4 34.7 32.2 34.8 32.5Z" fill="#606060" stroke="#606060" stroke-width="0.5" stroke-miterlimit="10"/>
<path d="M31.9 30.2C31.5 30.2 30.9 30.2 30.5 29.9C29.7 29.4 29.3 28.3 29.3 26.8C29.3 26.7 29.4 26.6 29.5 26.6C29.6 26.6 32.1 26.3 33.1 27.6C33.5 28.2 33.5 29 33.1 29.9C33.1 30 33 30 33 30C32.9 29.9 32.4 30.1 31.9 30.2ZM29.8 27C29.8 28.2 30.1001 29 30.7001 29.4C31.4001 29.9 32.3 29.6 32.6 29.5C32.9 28.8 32.9 28.2 32.6 27.8C32.1 27 30.6 26.9 29.8 27Z" fill="#606060" stroke="#606060" stroke-width="0.5" stroke-miterlimit="10"/>
<path d="M34.1001 36.4C33.9001 36.4 33.8001 36.3 33.8001 36.1C33.8001 35.8 33.8001 35.5 33.8001 35.3C33.8001 33.5 33.6001 29.5 30.9001 28.4C30.8001 28.4 30.7001 28.2 30.8001 28.1C30.8001 28 31.0001 27.9 31.1001 28C32.7001 28.6 33.7001 30.2 34.1001 32.7C34.1001 32.9 34.2001 33.1 34.2001 33.3C34.8001 31.5 35.8001 30.9 35.9001 30.8C36.0001 30.7 36.2001 30.8 36.2001 30.9C36.3001 31 36.2001 31.2 36.1001 31.2C36.1001 31.2 34.5001 32.3 34.3001 35.2C34.3001 35.7 34.3001 36 34.3001 36.1C34.3001 36.3 34.2001 36.4 34.1001 36.4Z" fill="#606060" stroke="#606060" stroke-width="0.5" stroke-miterlimit="10"/>
</g>
<defs>
<clipPath id="clip0">
<rect width="50" height="50" fill="white"/>
</clipPath>
</defs>
</svg>
