<svg width="50" height="50" viewBox="0 0 50 50" fill="none" xmlns="http://www.w3.org/2000/svg">
<path d="M4.56481 19.3704C4.59259 19.537 4.62037 19.6852 4.63888 19.8519C4.71296 20.2778 4.76851 20.6945 4.85185 21.0648C5.34259 23.25 6.42592 25.0741 8.16666 26.6204L8.59259 27C13.2593 31.1667 18.0741 35.463 22.8333 39.6759C23.4537 40.2315 24.1296 40.7778 24.9722 41.4352C26.3796 40.3056 27.6018 39.3056 28.787 38.25C29.4815 37.6389 30.1759 37.0185 30.8704 36.3982C34.5833 33.1204 38.4167 29.7315 42.1111 26.3241C44.6667 23.963 45.7593 20.9537 45.3426 17.3796C45.0833 15.2037 44.1944 13.1944 42.7778 11.6111C41.3518 10.0185 39.463 8.89815 37.3055 8.37037C34.1574 7.5926 31.3796 8.26852 28.8333 10.4259C28.3889 10.8056 27.963 11.287 27.5 11.787C27.2778 12.037 27.0463 12.287 26.8055 12.5463C26.787 12.5648 26.7315 12.6296 26.6944 12.6759C26.6574 12.7222 26.6111 12.7685 26.5741 12.8148L25.0278 14.6482L23.4537 12.8519C23.287 12.6574 23.1296 12.4722 22.963 12.2778C22.6481 11.8982 22.3426 11.537 22.0278 11.2222C20.7222 9.86111 19.287 8.95371 17.6481 8.43519C15.7685 7.8426 13.8611 7.88889 11.8333 8.56482C8.87037 9.55556 6.76851 11.463 5.42592 14.3611C5 15.2963 4.73148 16.3148 4.60185 17.4907C4.58333 17.6574 4.56481 17.7963 4.52777 17.9167L4.56481 19.3704ZM24.9907 46.0463C24.1667 46.0463 23.6204 45.6204 23.25 45.3334C23.1852 45.2778 23.1296 45.2315 23.0463 45.1759C21.8426 44.2593 20.9259 43.5185 20.1018 42.7778C15.3426 38.5648 10.5185 34.2593 5.85185 30.0926L5.42592 29.713C3.05555 27.6111 1.50925 25.0093 0.82407 21.9907C0.712958 21.4815 0.629625 20.9815 0.555551 20.5C0.527773 20.3056 0.490736 20.1019 0.462958 19.9074L0.435181 19.7315V17.6204L0.462958 17.4445C0.472218 17.3796 0.481477 17.3241 0.490736 17.2593C0.499996 17.1945 0.518514 17.1204 0.518514 17.0833C0.703699 15.4907 1.09259 14.0185 1.7037 12.6945C3.51851 8.75926 6.49074 6.06482 10.537 4.70371C13.3704 3.75 16.1759 3.70371 18.8889 4.53704C21.1667 5.25 23.2407 6.5463 25.0093 8.37963C25.0185 8.38889 25.0278 8.39815 25.0278 8.40741C25.3796 8.02778 25.75 7.64815 26.1759 7.2963C27.9259 5.81482 29.8241 4.81482 31.8426 4.31482C33.8889 3.81482 36.0555 3.83333 38.2778 4.37963C41.2407 5.10185 43.8518 6.65741 45.8426 8.87963C47.8241 11.1111 49.0648 13.8796 49.4259 16.9074C50 21.787 48.4352 26.0833 44.9074 29.3519C41.1852 32.787 37.3241 36.1945 33.6018 39.4908C32.9074 40.1019 32.213 40.7222 31.5185 41.3333C30.0926 42.5926 28.6574 43.7593 26.9352 45.1296C26.8611 45.1852 26.8055 45.2315 26.75 45.2685C26.3889 45.5926 25.8426 46.0371 24.9907 46.0463Z" fill="#606060"/>
</svg>
