<svg width="50" height="50" viewBox="0 0 50 50" fill="none" xmlns="http://www.w3.org/2000/svg">
<path d="M28.8 2.5C29 3.1 29.2 3.7 29.5 4.3C29.9 5.2 30.7 5.8 31.6 6.2C32 6.4 32.4 6.5 32.9 6.7C32 7.2 31 7.7 30.2 8.2C29.3 8.8 29.2 10 28.7 10.9C28.2 10 28 8.9 27.3 8.2C26.5 7.4 25.5 7.2 24.5 6.7C24.8 6.6 24.9 6.5 25 6.5C25.5 6.3 26 6.1 26.5 5.9C27.3 5.5 27.9 4.8 28.2 3.9C28.4 3.5 28.5 3 28.7 2.6L28.8 2.5Z" fill="#606060"/>
<path d="M38 47.5C37.8 47.1 37.7 46.7 37.5 46.3C37.1 45.1 36.3 44.3 35.1 43.9C34.7 43.8 34.3 43.6 33.9 43.4C34.8 42.9 36 42.8 36.6 41.9C37.2 41.1 37.6 40.2 38.1 39.4C38.5 40.2 39 41.1 39.6 41.9C40.2 42.8 41.4 42.9 42.4 43.4C41.4 43.9 40.3 44.1 39.6 44.9C38.9 45.7 38.6 46.6 38.3 47.6H38V47.5Z" fill="#606060"/>
<path d="M32.9001 30.9C32.7001 31 32.6001 31.2 32.4001 31.2C31.6001 31.5 30.8001 31.8 30.0001 32.1C27.7001 33 26.1001 34.6 25.2001 36.9C24.9001 37.7 24.6001 38.4 24.3001 39.2C24.2001 39.4 24.1001 39.5 23.9001 39.7C23.8001 39.5 23.6001 39.4 23.6001 39.2C23.3001 38.4 23.0001 37.5 22.6001 36.6C21.7001 34.5 20.2001 33 18.1001 32.1C17.2001 31.8 16.4001 31.5 15.5001 31.1C15.4001 31 15.2001 30.9 15.1001 30.8C15.2001 30.7 15.3001 30.5 15.5001 30.5C16.3001 30.2 17.1001 29.9 18.0001 29.6C20.3001 28.7 21.8001 27.2 22.7001 24.9C23.0001 24.1 23.3001 23.3 23.6001 22.6C23.7001 22.4 23.8001 22.3 24.0001 22.1C24.1001 22.3 24.3001 22.4 24.4001 22.6C24.7001 23.3 25.0001 24.1 25.2001 24.8C26.1001 27.2 27.8001 28.9 30.2001 29.7C31.0001 30 31.7001 30.3 32.5001 30.5C32.6001 30.7 32.7001 30.8 32.9001 30.9Z" fill="#606060"/>
<path d="M21 13.4C20.8 13.5 20.7001 13.7 20.6 13.7C19.8001 14 19 14.3 18.3 14.6C15.9 15.5 14.3 17.1 13.4 19.5C13.1 20.3 12.8 21.1 12.5 21.9C12.4 22 12.3 22.1 12.2 22.3C12.1 22.2 12 22.1 11.9 22C11.6 21.2 11.3 20.4 11 19.5C10 17 8.40005 15.4 6.10005 14.6C5.30005 14.3 4.50005 14 3.70005 13.7C3.60005 13.6 3.40005 13.5 3.30005 13.4C3.40005 13.3 3.50005 13.1 3.70005 13.1C4.50005 12.8 5.40005 12.5 6.30005 12.1C8.50005 11.2 10.1 9.6 10.9 7.4C11.2 6.6 11.5 5.8 11.8 4.9C11.9 4.8 12 4.7 12.1 4.5C12.2 4.6 12.3 4.7 12.4 4.8C12.7 5.6 13 6.5 13.4 7.4C14.3 9.7 15.9 11.2 18.2 12.1C19 12.4 19.8001 12.7 20.6 13C20.6 13.1 20.8 13.2 21 13.4Z" fill="#606060"/>
<path d="M46.7001 19.4C46.6001 19.5 46.4001 19.5 46.3001 19.6C45.7001 19.8 45.2001 20 44.6001 20.2C43.2001 20.8 42.1001 21.8 41.6001 23.3C41.4001 23.9 41.2001 24.5 41.0001 25C41.0001 25.1 40.8001 25.2 40.8001 25.3C40.7001 25.2 40.6001 25.1 40.6001 25C40.4001 24.4 40.2001 23.9 40.0001 23.3C39.4001 21.8 38.4001 20.7 36.8001 20.1C36.3001 19.9 35.7001 19.7 35.2001 19.5C35.1001 19.5 34.9001 19.4 34.7001 19.3C34.9001 19.2 35.0001 19.1 35.2001 19C35.7001 18.8 36.3001 18.6 36.8001 18.4C38.3001 17.8 39.4001 16.7 39.9001 15.2C40.1001 14.7 40.3001 14.1 40.5001 13.6C40.5001 13.5 40.7001 13.4 40.7001 13.3C40.8001 13.4 40.9001 13.5 40.9001 13.6C41.1001 14.2 41.3001 14.7 41.5001 15.3C42.1001 16.8 43.2001 17.9 44.7001 18.5C45.2001 18.7 45.7001 18.9 46.2001 19C46.3001 19.1 46.5001 19.1 46.6001 19.2C46.7001 19.3 46.7001 19.3 46.7001 19.4Z" fill="#606060"/>
<path d="M17.2 40.8C16 41.4 14.7 41.7 13.8 42.6C12.9 43.5 12.6 44.9 12 46.1C11.9 45.9 11.8 45.8 11.7 45.6C11.5 45.2 11.4 44.7 11.2 44.3C10.7 43 9.7 42 8.3 41.5C7.9 41.3 7.5 41.2 7 41C6.9 41 6.8 40.9 6.5 40.8C6.7 40.7 6.8 40.6 6.9 40.6C7.4 40.4 7.9 40.2 8.4 40C9.7 39.5 10.6 38.6 11.1 37.3C11.3 36.8 11.4 36.4 11.6 35.9C11.6 35.8 11.7 35.7 11.8 35.5C12.4 36.7 12.6 38 13.6 38.9C14.7 39.9 16 40.1 17.2 40.8Z" fill="#606060"/>
</svg>
